<?xml version="1.0" encoding="utf-8"?>
<!-- Designed by Vexels.com - 2021 All Rights Reserved - https://vexels.com/terms-and-conditions/  -->
<svg version="1.1" id="Capa_1" xmlns="http://www.w3.org/2000/svg" xmlns:xlink="http://www.w3.org/1999/xlink" x="0px" y="0px"
	 viewBox="0 0 1200 1200" enable-background="new 0 0 1200 1200" xml:space="preserve">
<g>
	<path fill="#0A2748" d="M357.415,981.469c-6.545-8.181-6.545-16.362-4.363-22.362c2.182-5.999,2.182-8.181,2.182-8.181
		s0.545-2.727,2.727-8.727c0.301-0.827,0.504-1.578,0.656-2.282c-10.663,2.978-20.154,16.416-33.199,2.1
		c11.31,7.069,22.824-5.548,33.124-7.34c-0.27-0.81-0.582-1.204-0.582-1.204s12.926,0.214,24.427-1.251
		c-23.004-12.076-36.178-44.603-27.725-70.491c-6.171,6.842-10.337,12.837-10.337,12.837l-1.225,0.408
		c-4.711,12.956-6.084,26.695,1.431,40.384c-11.119-10.415-12.054-25.177-7.486-39.436c-3.677-3.151-11.264,3.007-11.264,3.007
		s-1.636-4.909-7.09-6c-5.454-1.091-9.272-1.636-16.908-10.363c-7.636-8.726-26.18-8.726-37.088,4.363
		c-10.908,13.09-9.817,34.361-4.909,49.632c4.909,15.271,13.635,34.906,16.908,46.36c3.273,11.454-1.091,26.725,3.818,37.633
		c4.909,10.908,24.543,29.997,39.269,40.906s28.907,12.544,40.36,6.545c11.454-5.999,11.999-20.18,10.363-32.179
		C368.869,1003.831,363.96,989.65,357.415,981.469z"/>
	<path fill="#0A2748" d="M811.547,685.501c-0.643,4.415-1.081,8.829-1.287,13.228c42.534,21.231,97.835,1.155,129.716-34.511
		c3.076-9.702,4.369-19.838,3.571-29.812c-2.207-27.59-13.61-42.596-18.99-48.241C909.63,660.61,846.504,701.761,811.547,685.501z"
		/>
	<path fill="#0A2748" d="M480.427,816.86c-4.956,1.757-8.851,6.969-16.015,4.821c-12.346-13.929-25.98-29.651-39.289-45.207
		c-5.354,13.38-13.617,26.17-24.12,37.374c0.703,0.796,1.136,1.271,1.136,1.271c-3.273,9.272,1.636,23.453,1.636,23.453
		s-14.181-1.636-29.452,6.545c-5.015,2.687-9.96,6.789-14.355,11.082c-9.001,26.94,3.005,62.023,28.992,74.936
		c4.067-0.866,7.479-2.047,9.361-3.661c7.636-6.545,24.543-4.363,31.088-4.909c6.545-0.545,20.18,6,26.725,3.272
		c6.545-2.727,14.181-7.636,16.908-21.271c2.727-13.635,9.272-19.635,17.998-39.815c8.727-20.18,11.999-57.268,13.635-63.813
		c0.487-1.948,1.75-6.175,3.323-11.198C500.769,799.926,491.529,808.982,480.427,816.86z"/>
	<path fill="#0A2748" d="M809.638,702.152c-0.194,4.627,0.487,6.411,0.814,10.979c21.854,11.998,49.306,14.887,72.737,7.814
		c25.371-7.659,44.752-26.979,54.207-49.66C907.637,707.455,851.089,724.514,809.638,702.152z"/>
	<path fill="#0A2748" d="M899.551,1109.64c-7.09-5.454-16.908-11.999-21.816-14.726c-4.909-2.727-12.544-13.635-12.544-13.635
		c5.454-7.636,2.727-13.635-7.636-12.544c-10.363,1.091-15.271-4.363-15.271-4.363c0-13.09-6.545-10.908-6.545-10.908
		s-1.091-14.181-2.182-18.544c-0.315-1.26-0.912-2.125-1.589-2.763c-16.421,5.606-25.609-0.849-28.045,14.58
		c-5.402-13.446,4.384-14.806,20.195-17.501c1.399-0.439,2.853-0.992,4.334-1.582c0.405-6.397-0.515-17.776-1.44-20.55
		c-1.091-3.273,1.091-11.454,1.091-16.362s0-10.363,0-16.362c0-6-3.272-4.909-3.272-4.909c0.419-14.263,0.839-41.415,1.01-53.199
		c-17.965,3.705-37.393,2.71-55.369-4.796c18.636,2.019,36.684,1.805,55.442-0.329c0.005-0.368,0.008-0.58,0.008-0.58l3.272-2.727
		c0,0-2.727-16.362-4.363-35.997c-1.636-19.635-8.181-44.724-11.454-53.45c-3.272-8.726-5.454-31.088-8.181-42.542
		c-2.727-11.454-11.454-26.725-16.362-39.269s-9.817-31.634-16.362-49.632c-4.364-12.001-13.315-26.875-18.809-35.48
		c-8.931-12.109-19.671-22.835-34.095-29.424c9.705,1.591,18.372,6.082,25.955,12.475c-7.556-14.412-24.857-31.994-29.228-35.928
		c-5.454-4.909-15.271-12.544-15.271-16.908c0-4.363-4.363-6.545-10.363-8.181c-2.483-0.677-3.809-1.182-4.553-1.911
		c-13.619,2.994-26.215,11.722-39.262,21.364c6.841-11.731,22.313-24.743,38.354-26.136c0.003-0.315,0.006-0.597,0.006-0.952
		c0-5.454-1.636-7.09-7.636-7.636c-5.999-0.545-7.09-9.272-9.817-13.635c-2.727-4.363-8.181-1.636-9.272-6.545
		s-3.273-8.727-3.273-8.727s4.363-4.909,2.182-14.726c-2.182-9.817,0.364-13.999-4-23.453c-1.955-4.236-4.053-5.981-5.777-6.627
		c0.096,9.409-0.581,19.038-5.455,27.993c-21.751,30.019-43.393,57.848-66.239,87.128c-17.69,15.935-46.725,13.039-70.572,16.031
		c-21.748,1.929-46.301,10.681-67.94,0.555c25.876,9.421,52.991-4.727,82.036-6.027c19.111-2.83,36.319-1.037,52.53-14.301
		c19.931-26.007,42.37-54.937,62.883-81.412c7.002-7.656,7.953-15.189,8.758-27.873c0.064-1.022,0.121-2.014,0.176-2.991
		c-0.446-3.196-1.687-13.861,0.145-23.019c2.182-10.908,10.908-19.635,18.18-27.634c7.272-7.999,22.544-31.997,22.544-31.997
		c9.454,26.18,26.907,50.178,26.907,50.178c0,7.272,10.908,16.726,10.908,22.544s7.272,21.089,9.454,26.18
		s4.363,19.635,5.818,29.816c1.454,10.181,13.09,26.907,22.544,35.633c9.454,8.727,15.999,9.454,15.999,9.454
		s-0.727,3.636-4.363,10.181c-2.423,4.362-0.327,8.39,1.343,10.599c9.573-19.655,27.701-32.715,53.822-41.294
		c3.157,0.17,38.947,20.775,28.828,1.242c13.075,14.913-17.328,10.365-28.657,3.698c-24.265,8.089-46.575,26.53-56.726,51.772
		c-3.336,15.412-4.976,40.886,7.208,67.792c6.038,13.335,15.91,23.879,27.832,31.492c-0.762-9.105-0.474-18.391,0.818-27.675
		c-16.704-11.637-24.589-39.383-12.651-86.72c-8.464,44.518-1.226,70.61,13.457,81.859c7.309-41.755,33.622-82.642,67.264-104.766
		c-29.737,26.245-54.836,66.828-62.171,107.952c26.111,12.918,69.187-11.654,94.884-58.958
		c6.553-12.729,10.957-26.195,13.619-40.046c-9.236-15.621-29.606-23.129-29.606-23.129s4.363-2.909,3.636-7.999
		c-0.727-5.09-8.727-4.363-13.817-5.09c-5.09-0.727-9.454-3.636-12.363-4.363c-2.909-0.727-10.908-6.545-17.453-4.363
		c-6.545,2.182-9.454,5.818-9.454,5.818c-3.636-2.182-10.181-4.363-15.999-2.182s-14.544,5.818-14.544,5.818
		c-7.999-8.726-12.363-38.542-13.09-48.723c-0.727-10.181-11.635-28.361-11.635-28.361c0.727-7.272-5.09-10.908-5.09-10.908
		c2.909-7.272-0.727-8.727-3.636-11.636c-2.909-2.909-5.09-13.09-5.818-16.726c-0.727-3.636-3.272-5.454-3.272-5.454
		s-3.273-16.362-7.636-27.27c-4.363-10.908-15.271-34.906-15.817-52.905s-11.999-40.36-21.816-56.177
		c-9.817-15.817-21.816-14.726-29.452-19.635c-5.918-3.805-14.107-6.945-17.502-8.169c4.73,32.451-5.795,66.67-1.587,101.616
		c-11.602-34.245-1.164-67.45-0.084-103.109c-0.433-5.505-4.514-9.486-8.642-10.518c-4.363-1.091-11.999-3.272-20.18-8.726
		c-4.416-2.944-8.503-4.769-11.339-5.831c-0.701,19.94-2.175,40.266-8.841,59.826c1.718-22.832,1.067-46.2,5.289-69.636
		c0.926-16.726,2.892-35.628,2.892-35.628c5.454-1.636,16.908-8.181,16.908-13.635c0-5.454,3.818-9.272,3.818-16.908
		c0-5.463-2.494-8.381-3.924-9.618c-9.022-3.321-19.726,16.869-24.972-5.607c-5.493-10.87-8.422-17.213-9.828-33.316
		c3.285,3.282,4.394,8.891,5.14,15.51c5.849,6.021,8.548,12.22,12.517,22.688c5.034-3.134,11.555-4.512,16.667-2.821l0.582-3.199
		c0,0,6.545-6.545,9.817-11.454c3.273-4.909-4.363-14.726-3.272-16.908c1.091-2.182-2.727-14.726-7.09-17.998
		c-4.363-3.273-5.454-10.908-5.454-13.09c0-2.182-4.909-13.635-16.362-19.089c-11.454-5.454-13.09-2.182-14.181-5.999
		c-1.091-3.818-14.181-9.817-20.726-5.454c-6.545,4.363-15.817,3.273-17.271,0.364c-1.454-2.909-15.271-2.909-18.18,2.909
		c-2.909,5.818-8.726-3.636-15.271-2.909c-6.545,0.727-9.454,13.817-12.363,13.817c-2.909,0-5.818,8.726-5.091,17.453
		c0.727,8.726-2.909,11.635-5.091,18.18c-1.406,4.219,0.811,14.461,2.566,21.222c4.775-19.456,15.251-31.266,42.521-24.858
		c-28.543,2.542-33.412,11.574-40.833,30.912c0.065,0.214,0.109,0.358,0.109,0.358c-4.363,7.999-0.727,19.635-0.727,19.635
		c-3.636,11.999-2.909,31.634,0.364,42.542c3.273,10.908,8.727,25.089,8.727,25.089l-0.93,0.465
		c22.001,39.15,20.258,35.631,77.287,6.08c-51.697,39.945-62.296,35.653-76.783,3.073c11.851,53.098,11.676,104.787,72.42,94.01
		c-65.596,21.439-68.822-47.479-77.735-101.11c-4.857-3.835-10.82,3.503-20.984,4.573c-10.363,1.091-19.089,5.454-27.27,10.908
		c-8.181,5.454-21.271,8.726-27.816,9.272c-4.854,0.405-7.001,3.502-7.79,5.079c37.701,62.446,61.048,186.792-27.881,147.321
		c-0.591,0.551-1.183,1.103-1.791,1.669c-5.101,5.735-10.62,11.087-17.142,14.973c-0.819,3.732-1.875,8.876-2.482,13.125
		c-0.866,6.063-1.503,39.847-1.728,53.512c5.452,4.314,11.035,8.731,16.603,12.858c2.078,1.474,4.166,2.967,6.267,4.492
		c1.122,0.78,2.24,1.543,3.355,2.283c2.535-1.197,5.282-1.686,8.158-1.584c5.269-0.29,11.269,0.862,17.588,4.689
		c12.231-4.683,73.655,18.208,35.204,27.378c27.631-8.039-10.108-21.061-30.553-22.22c14.522,11.44,26.986,30.439,27.28,44.036
		c-3.335-16.309-34.415-56.38-58.85-46.49c-10.521-8.286-24.815-17.061-35.591-28.358c-5.397-4.811-11.19-10.609-12.823-14.599
		c-3.273-7.999-9.09-18.18-9.09-18.18c2.545-5.454,9.817-16.362,17.453-20.726s20.362-15.271,20.362-15.271
		s-0.044,0.184-0.121,0.508c16.373-17.407,29.187-39.968,48.117-40.141c-11.099,4.043-19.273,14.785-28.225,25.355
		c14.903,5.594,35.502,11.169,48.508-4.437c14.246-30.452-3.789-97.687-24.95-138.532c-31.497,11.668-49.462,33.876-55.874,46.166
		c-6.545,12.544-26.18,37.088-32.179,44.178c-5.999,7.09-51.814,62.177-58.359,78.539c-6.545,16.362-12.544,18.544-9.817,34.361
		c2.727,15.817,7.09,22.362,14.726,28.361c7.636,5.999,29.452,22.907,41.451,28.907s40.906,18.544,40.906,18.544
		c1.636,11.999,6.545,17.998,9.817,22.362c3.272,4.363,10.908,14.181,10.908,14.181v0.389c10.096,9.478,21.569,21.216,13.635,0.156
		c18.552,14.819-4.123,24.945-13.635,5.906v16.456c-6.545-1.091-5.999,7.636-2.727,11.454c3.273,3.818,7.09,11.999,7.09,11.999
		c-7.09,1.636-5.454,19.089-3.272,23.453c2.182,4.363,3.272,8.727-1.091,11.999c-4.363,3.273-7.636,5.454-5.999,9.817
		c1.636,4.363,5.454,9.272,2.727,17.453c-2.727,8.181-7.636,56.177-8.727,79.084c-1.091,22.907-4.363,36.542-2.182,42.542
		c1.482,4.075,7.236,11.161,10.778,15.294c37.879-46.84,5.873-63.458,68.023,4.739c20.444-7.144,34.978-24.976,46.34-44.207
		c2.175-6.41,4.047-11.541,4.667-12.368c1.636-2.182,19.635,0.545,23.453,0.545c3.818,0,1.091-7.636,0.545-15.271
		c-0.545-7.636,4.909-13.09,4.909-20.725c0-7.636,3.273-19.635,3.273-19.635s4.363-4.909,6-10.908
		c1.636-6,4.363-16.908,6.545-20.725c2.182-3.818,9.272-3.273,9.272-3.273c6.545,7.09,36.542,32.725,42.542,40.906
		c6,8.181,11.454,18.544,13.635,24.544c0.922,2.534,2.725,3.696,5.028,4.04c14.221-24.591,31.766-49.041,57.361-63.624
		c-0.108-13.238,0.164-29.905,3.969-45.135c-2.316,14.514,3.132,33.311-0.413,48.824c-23.029,13.668-40.567,36.823-57.253,59.919
		c2.388-0.295,5.029-1.03,7.671-1.843c7.09-2.182,19.635-3.818,19.635-3.818c13.09,11.999,63.267,65.995,67.085,70.358
		c3.818,4.363,8.727,20.726,10.908,25.634c2.182,4.909,2.727,16.908,1.091,32.179c-1.636,15.271-0.545,40.906-0.545,40.906
		l4.363,4.363c0,0-0.545,11.999,8.726,29.452c6.658,12.532,10.211,26.711,11.691,33.733c11.435,1.206,23.98,4.759,33.214,4.991
		c-11.217,4.564-22.1,2.085-33.403,0.314c-3.836,4.862,3.262,24.141,3.769,30.229c0.545,6.545,4.909,19.089,6.545,27.271
		c1.636,8.181-1.091,26.179-1.091,26.179c-7.09,3.818-1.636,19.635-2.727,27.816c-1.091,8.181-4.363,17.453-7.09,23.998
		c-2.727,6.545-6.545,10.363,3.273,20.18c9.817,9.817,25.634,7.636,34.361,7.636c8.727,0,19.635-2.727,27.271,2.727
		c7.636,5.454,23.453,8.181,39.815,8.181c16.362,0,31.634-2.727,35.451-4.909c3.818-2.182,3.273-9.272,2.727-16.908
		C909.369,1120.548,906.642,1115.094,899.551,1109.64z M616.303,511.508c-32.373,43.596-47.044,56.488-95.992,49.45
		C578.399,559.634,581.563,541.138,616.303,511.508z M467.934,659.867c-14.742-0.341-27.339-2.3-43.615-5.825
		c14.002-1.662,29.568,0.149,46.353,0.028c9.485-3.504,19.224-9.149,32.186-7.3C490.262,648.28,482.381,656.749,467.934,659.867z
		 M595.941,613.318c4.77-22.088,20.387-42.478,39.269-58.177C623.815,574.363,608.814,592.126,595.941,613.318z"/>
</g>
</svg>
